<?xml version="1.0" standalone="no"?>
<!DOCTYPE svg PUBLIC "-//W3C//DTD SVG 20010904//EN"
 "http://www.w3.org/TR/2001/REC-SVG-20010904/DTD/svg10.dtd">
<svg version="1.0" xmlns="http://www.w3.org/2000/svg"
 width="512.000000pt" height="512.000000pt" viewBox="0 0 512.000000 512.000000"
 preserveAspectRatio="xMidYMid meet">

<g transform="translate(0.000000,512.000000) scale(0.100000,-0.100000)"
fill="#000000" stroke="none">
<path d="M515 4550 c-275 -159 -504 -291 -508 -292 -4 -2 255 -459 577 -1016
l585 -1014 -15 -46 c-63 -202 -81 -463 -45 -671 123 -718 727 -1231 1451
-1231 399 0 757 149 1039 431 235 235 378 524 422 856 23 179 1 436 -54 615
l-15 47 584 1012 c321 557 583 1013 582 1014 -46 30 -1020 586 -1023 584 -2
-2 -222 -384 -490 -849 -268 -465 -493 -851 -500 -858 -9 -11 -22 -9 -66 7
-291 107 -666 107 -957 0 -30 -10 -57 -17 -62 -14 -4 2 -230 390 -501 860
-272 470 -496 855 -499 855 -3 0 -230 -131 -505 -290z m2270 -1536 c391 -64
752 -336 929 -701 145 -298 170 -639 69 -957 -61 -194 -162 -356 -317 -512
-252 -252 -552 -377 -906 -377 -354 0 -654 125 -906 377 -254 255 -377 553
-376 911 0 206 39 376 128 558 119 246 321 452 562 575 266 136 517 175 817
126z"/>
<path d="M2340 2974 c-506 -91 -917 -505 -1004 -1009 -20 -115 -20 -315 0
-430 42 -246 153 -462 333 -647 240 -249 545 -379 891 -379 346 0 651 130 891
379 234 241 349 527 349 862 0 346 -131 654 -379 893 -182 175 -405 289 -648
331 -108 19 -328 19 -433 0z m356 -129 c219 -20 464 -139 638 -309 212 -208
326 -479 328 -781 1 -264 -80 -496 -245 -700 -185 -228 -461 -377 -751 -404
-215 -19 -407 17 -601 114 -545 273 -765 939 -490 1485 168 332 514 567 884
600 84 7 113 6 237 -5z"/>
<path d="M2346 2790 c-93 -20 -106 -24 -221 -73 -226 -95 -439 -311 -539 -546
-67 -156 -80 -224 -80 -421 0 -149 3 -187 22 -256 112 -412 421 -704 834 -788
100 -21 296 -21 396 0 413 84 722 376 834 788 19 69 22 107 22 256 0 150 -3
187 -22 257 -99 363 -357 638 -713 756 -147 49 -373 61 -533 27z m328 -588
l109 -219 226 -32 c124 -18 234 -35 245 -38 15 -4 -16 -40 -157 -182 l-176
-176 39 -230 c22 -126 39 -236 38 -242 -2 -8 -87 31 -220 101 l-218 114 -217
-114 c-134 -70 -219 -109 -221 -101 -1 6 16 116 38 242 l39 230 -176 176
c-141 142 -172 178 -157 182 11 3 121 20 245 38 l226 32 109 219 c60 120 111
218 114 218 3 0 54 -98 114 -218z"/>
<path d="M1413 4440 l202 -400 945 0 945 0 202 400 201 400 -1348 0 -1348 0
201 -400z"/>
</g>
</svg>
