<?xml version="1.0" standalone="no"?>
<!DOCTYPE svg PUBLIC "-//W3C//DTD SVG 20010904//EN"
 "http://www.w3.org/TR/2001/REC-SVG-20010904/DTD/svg10.dtd">
<svg version="1.0" xmlns="http://www.w3.org/2000/svg"
 width="512.000000pt" height="512.000000pt" viewBox="0 0 512.000000 512.000000"
 preserveAspectRatio="xMidYMid meet">

<g transform="translate(0.000000,512.000000) scale(0.100000,-0.100000)"
fill="#000000" stroke="none">
<path d="M1320 4545 l-255 -255 483 -483 482 -482 0 -311 0 -310 -37 -18 c-79
-37 -231 -147 -307 -222 -106 -105 -187 -217 -251 -349 -91 -188 -125 -337
-125 -546 0 -460 232 -860 635 -1093 370 -214 860 -214 1230 0 403 233 635
633 635 1093 0 209 -34 358 -125 546 -64 132 -146 246 -252 350 -75 74 -227
184 -305 221 l-38 18 0 310 0 311 482 482 483 483 -258 257 -257 258 -490
-490 -490 -490 -488 488 c-268 268 -489 487 -492 487 -3 0 -120 -115 -260
-255z m980 -1400 l64 -65 196 0 196 0 64 65 c53 54 70 65 97 65 l33 0 0 -205
0 -205 -390 0 -390 0 0 205 0 205 33 0 c27 0 44 -11 97 -65z m368 -545 c433
-47 791 -357 898 -778 166 -654 -332 -1292 -1006 -1292 -674 0 -1173 640
-1006 1291 106 419 462 731 886 778 108 12 120 12 228 1z"/>
<path d="M2230 2997 l0 -127 330 0 330 0 0 127 0 127 -53 -52 -53 -52 -224 0
-224 0 -53 52 -53 52 0 -127z"/>
<path d="M2431 2085 c-68 -35 -125 -66 -127 -67 -4 -5 33 -148 40 -155 2 -3
39 13 80 35 l76 39 0 -413 0 -414 95 0 95 0 0 520 0 520 -67 0 c-64 0 -76 -5
-192 -65z"/>
</g>
</svg>
